<svg height="100%" version="1.1" width="100%" xmlns="http://www.w3.org/2000/svg" preserveAspectRatio="xMidYMid meet" viewBox="0 0 600 442" xmlns:xlink="http://www.w3.org/1999/xlink"><desc>Created with Snap</desc><defs/><g id="root" contentwidth="284" contentheight="136">
          <rect class="background" height="2000%" width="2000%" y="-1000%" x="-1000%" style="" fill="#ffffff"/>
          <g class="content" id="content" transform="matrix(1,0,0,1,0,1)">
            <g class="icon">
            <svg height="51" version="1.1" width="73" xmlns="http://www.w3.org/2000/svg" x="159" y="152" preserveAspectRatio="none" transform="matrix(1,0,0,1,0,0)"><desc>Created with Snap</desc><defs/><svg xmlns="http://www.w3.org/2000/svg" viewBox="159 152 73 51"><path id="prefix-NrV-矩形" fill="#74B3FF" transform="rotate(-22 195.154 177.35)" d="m161.186 163.626 53.725 1.954 14.21 25.494h-52z"/></svg></svg><svg height="51" version="1.1" width="73" xmlns="http://www.w3.org/2000/svg" x="368" y="153" preserveAspectRatio="none" transform="matrix(1,0,0,1,0,0)"><desc>Created with Snap</desc><defs/><svg xmlns="http://www.w3.org/2000/svg" viewBox="368 153 73 51"><path id="prefix-XQH-矩形备份-2" fill="#26CF9E" transform="scale(-1 1) rotate(-22 0 2260.215)" d="m370.67 164.612 53.797 1.982 14.21 25.494h-52z"/></svg></svg><svg height="50" version="1.1" width="72" xmlns="http://www.w3.org/2000/svg" x="369" y="238" preserveAspectRatio="none" transform="matrix(1,0,0,1,0,0)"><desc>Created with Snap</desc><defs/><svg xmlns="http://www.w3.org/2000/svg" viewBox="369 238 72 50"><path id="prefix-6-b-矩形备份-3" fill="#63DDB1" transform="scale(-1 1) rotate(-22 0 2348.672)" d="m372.084 249.534 54.717 3.624 11.942 23.308-54.031-2.38z"/></svg></svg><svg height="83" version="1.1" width="25" xmlns="http://www.w3.org/2000/svg" x="417" y="179" preserveAspectRatio="none" transform="matrix(1,0,0,1,0,0)"><desc>Created with Snap</desc><defs/><svg xmlns="http://www.w3.org/2000/svg" viewBox="417 179 25 83"><path id="prefix-_yE-矩形备份-4" fill="#08C98E" transform="matrix(-1 0 0 1 858.579 0)" d="m416.79 179 25 19.639v55.311l-25 8.05z"/></svg></svg><svg height="50" version="1.1" width="72" xmlns="http://www.w3.org/2000/svg" x="158" y="237" preserveAspectRatio="none" transform="matrix(1,0,0,1,0,0)"><desc>Created with Snap</desc><defs/><svg xmlns="http://www.w3.org/2000/svg" viewBox="158 237 72 50"><path id="prefix-ed3-矩形备份" fill="#2C8FF4" transform="rotate(-22 194.376 262)" d="m161.046 248.534 54.718 3.624 11.941 23.308-54.03-2.38z"/></svg></svg><svg height="83" version="1.1" width="25" xmlns="http://www.w3.org/2000/svg" x="158" y="178" preserveAspectRatio="none" transform="matrix(1,0,0,1,0,0)"><desc>Created with Snap</desc><defs/><svg xmlns="http://www.w3.org/2000/svg" viewBox="158 178 25 83"><path id="prefix-eLn-矩形" fill="#0B7CF5" d="m158 178 25 19.639v55.311L158 261z"/></svg></svg></g>
            <g id="icon_name_and_slogan_gap">
            </g>
            <g class="name_and_slogan" id="name_and_slogan_id">
              <g class="name"><g id="nameDefaultGroup"><path d="M217.6 232 L217.6 198.1 L230.8 198.1 Q238.2 198.1 242.2 200.7 Q246.2 203.2 246.2 209 Q246.2 215.6 239.3 218.2 L248.1 228.6 L240.9 232.8 L230.7 219.8 L226.7 219.8 L226.7 232 L217.6 232 Z M230.9 213.1 Q233.8 213.1 235.6 211.9 Q237.4 210.8 237.4 208.7 Q237.4 206.6 235.6 205.5 Q233.9 204.4 230.9 204.4 L226.7 204.4 L226.7 213.1 L230.9 213.1 Z M288.6 232 L260.3 232 L260.3 198.1 L287.8 198.1 L287.8 204.2 L269.3 204.2 L269.3 211.2 L286.3 211.2 L286.3 217.8 L269.3 217.8 L269.3 224.9 L288.6 224.9 L288.6 232 Z M335.1 198.1 L335.1 204.6 L322.7 204.6 L322.7 232 L313.6 232 L313.6 204.6 L301 204.6 L301 198.1 L335.1 198.1 Z M375.9 232 L347.6 232 L347.6 198.1 L375.1 198.1 L375.1 204.2 L356.6 204.2 L356.6 211.2 L373.6 211.2 L373.6 217.8 L356.6 217.8 L356.6 224.9 L375.9 224.9 L375.9 232 Z" style="" fill="#383838" transform="matrix(1,0,0,1,0,0)"/></g></g>
              <g class="slogan"><g id="sloganDefaultGroup"/></g>
            </g>
            <g class="border">
            </g>
          </g>
          
          <defs id="defs">
            <mask xmlns="http://www.w3.org/2000/svg" id="mask">
                <rect id="showAll" fill="white" x="158" y="152" width="284" height="136"/>
                <rect id="hideNameBg" fill="black" x="0" y="0" width="0" height="0" stroke-width="2" stroke="black"/>
                <rect id="hideSloganBg" fill="black" x="0" y="0" width="0" height="0" stroke-width="2" stroke="black"/>
            </mask>
          </defs>
          
        </g>
        </svg>