<?xml version="1.0" encoding="utf-8"?>
<!-- Generator: Adobe Illustrator 27.0.0, SVG Export Plug-In . SVG Version: 6.00 Build 0)  -->
<svg version="1.1" id="图层_1" transform="matrix(1,0,0,1,0,0)"
	 xmlns="http://www.w3.org/2000/svg" xmlns:xlink="http://www.w3.org/1999/xlink" x="0px" y="0px" viewBox="0 0 3004.8 1252"
	 style="enable-background:new 0 0 3004.8 1252;" xml:space="preserve">
<style type="text/css">
	.st0{fill:#74B3FF;}
	.st1{fill:#26CF9E;}
	.st2{fill:#63DDB1;}
	.st3{fill:#08C98E;}
	.st4{fill:#2C8FF4;}
	.st5{fill:#0B7CF5;}
	.st6{fill:#383838;}
</style>
<g id="root">
	<g id="content" transform="matrix(1,0,0,1,0,1)">
		<g>
			<path id="prefix-NrV-矩形" class="st0" d="M52.3,188.5L571.2,0.5l233.3,188.1L309.7,388.6L52.3,188.5z"/>
			<path id="prefix-XQH-矩形备份-2" class="st1" d="M2953.5,198.6L2434.6,10.5l-233.3,188.1l494.8,200.1L2953.5,198.6z"/>
			<path id="prefix-6-b-矩形备份-3" class="st2" d="M2953.5,1067.4l-534-176l-203.1,176l522.9,185L2953.5,1067.4z"/>
			<path id="prefix-_yE-矩形备份-4" class="st3" d="M2957.5,205.6l-256.4,201.1v567.2l256.4,82.5V205.6z"/>
			<path id="prefix-ed3-矩形备份" class="st4" d="M51.3,1057.4l534-176l203.1,176l-522.9,185L51.3,1057.4z"/>
			<path id="prefix-eLn-矩形" class="st5" d="M47.3,195.5l256.4,201.1v567.2l-256.4,82.5C47.3,1046.3,47.3,195.5,47.3,195.5z"/>
		</g>
		<g id="name_and_slogan_id">
			<g>
				<g id="nameDefaultGroup">
					<path class="st6" d="M658.7,749.6V401.7h135.8c50.3,0,89.5,9.1,116.7,27.2c27.2,17.1,41.2,45.3,41.2,85.5
						c0,45.3-23.1,76.4-70.4,94.5l90.5,106.6L899,758.7L794.4,624.9h-41.2v124.7H658.7z M794.4,555.6c20.1,0,36.2-4,48.3-12.1
						c12.1-7,18.1-18.1,18.1-33.2c0-14.1-6-25.1-18.1-33.2c-12.1-7-28.2-11.1-48.3-11.1h-43.2v89.5H794.4z M1386.8,749.6h-290.6
						V401.7h281.6V464h-190.1v71.4h175v67.4h-174v72.4h198.1V749.6L1386.8,749.6z M1863.4,402.7v66.4h-126.7v280.6h-93.5V468.1
						h-129.7v-66.4h350V402.7z M2281.8,749.6h-290.6V401.7h281.6V464h-190.1v71.4h174v67.4h-174v72.4h198.1L2281.8,749.6
						L2281.8,749.6z"/>
				</g>
			</g>
		</g>
	</g>
</g>
</svg>
