<?xml version="1.0" encoding="utf-8"?>
<!-- Generator: Adobe Illustrator 27.0.0, SVG Export Plug-In . SVG Version: 6.00 Build 0)  -->
<svg version="1.1" id="图层_1" transform="matrix(1,0,0,1,0,0)"
	 xmlns="http://www.w3.org/2000/svg" xmlns:xlink="http://www.w3.org/1999/xlink" x="0px" y="0px" viewBox="0 0 612 792"
	 style="enable-background:new 0 0 612 792;" xml:space="preserve">
<style type="text/css">
	.st0{fill:#74B3FF;}
	.st1{fill:#26CF9E;}
	.st2{fill:#63DDB1;}
	.st3{fill:#08C98E;}
	.st4{fill:#2C8FF4;}
	.st5{fill:#0B7CF5;}
	.st6{fill:#383838;}
</style>
<g id="root">
	<g id="content" transform="matrix(1,0,0,1,0,1)">
		<g>
			<path id="prefix-NrV-矩形" class="st0" d="M161.7,351.5l51.6-18.7l23.2,18.7l-49.2,19.9L161.7,351.5z"/>
			<path id="prefix-XQH-矩形备份-2" class="st1" d="M450.2,352.5l-51.6-18.7l-23.2,18.7l49.2,19.9L450.2,352.5z"/>
			<path id="prefix-6-b-矩形备份-3" class="st2" d="M450.2,438.9l-53.1-17.5l-20.2,17.5l52,18.4L450.2,438.9z"/>
			<path id="prefix-_yE-矩形备份-4" class="st3" d="M450.6,353.2l-25.5,20v56.4l25.5,8.2V353.2z"/>
			<path id="prefix-ed3-矩形备份" class="st4" d="M161.6,437.8l53.1-17.5l20.2,17.5l-52,18.4L161.6,437.8z"/>
			<path id="prefix-eLn-矩形" class="st5" d="M161.2,352.2l25.5,20v56.4l-25.5,8.2V352.2z"/>
		</g>
		<g id="name_and_slogan_id">
			<g>
				<g id="nameDefaultGroup">
					<path class="st6" d="M222,407.2v-34.6h13.5c5,0,8.9,0.9,11.6,2.7c2.7,1.7,4.1,4.5,4.1,8.5c0,4.5-2.3,7.6-7,9.4l9,10.6l-7.3,4.3
						l-10.4-13.3h-4.1v12.4H222z M235.5,388c2,0,3.6-0.4,4.8-1.2c1.2-0.7,1.8-1.8,1.8-3.3c0-1.4-0.6-2.5-1.8-3.3
						c-1.2-0.7-2.8-1.1-4.8-1.1h-4.3v8.9H235.5z M294.4,407.2h-28.9v-34.6h28v6.2h-18.9v7.1H292v6.7h-17.3v7.2h19.7V407.2z
						 M341.8,372.7v6.6h-12.6v27.9h-9.3v-27.9H307v-6.6H341.8z M383.4,407.2h-28.9v-34.6h28v6.2h-18.9v7.1h17.3v6.7h-17.3v7.2h19.7
						V407.2z"/>
				</g>
			</g>
		</g>
	</g>
</g>
</svg>
